<svg width="159" height="64" viewBox="0 0 159 64" fill="none" xmlns="http://www.w3.org/2000/svg">
<path d="M50.2842 60.549H46.734C46.271 60.549 45.8594 60.1374 45.8594 59.6744V40.5861C45.8594 40.123 46.271 39.7114 46.734 39.7114C46.9913 39.7114 47.2485 39.8143 47.4029 40.0201L48.329 41.1006C48.6377 41.4607 49.1522 41.5122 49.5124 41.2035C50.1813 40.689 50.953 40.2259 51.7762 39.9172C52.8567 39.5056 53.9886 39.2998 55.172 39.2998C56.4583 39.2998 57.6416 39.5571 58.7736 40.0201C59.9055 40.4832 60.883 41.152 61.7577 42.0267C62.5809 42.9014 63.2498 43.8789 63.7643 45.0109C64.2274 46.1428 64.4846 47.3776 64.4846 48.6639V59.6744C64.4846 60.1374 64.073 60.549 63.6099 60.549H60.0598C59.5968 60.549 59.1852 60.1374 59.1852 59.6744V48.6124C59.1852 48.0465 59.0823 47.532 58.8765 47.0689C58.6707 46.6058 58.3619 46.1428 58.0018 45.7826C57.6416 45.4225 57.23 45.1138 56.7155 44.908C56.2525 44.7022 55.738 44.5992 55.172 44.5992C54.606 44.5992 54.0915 44.7022 53.577 44.908C53.0625 45.1138 52.6509 45.4225 52.2907 45.7826C51.9306 46.1428 51.6219 46.5544 51.4161 47.0689C51.2103 47.532 51.1074 48.0465 51.1074 48.6124V59.6744C51.1588 60.1374 50.7472 60.549 50.2842 60.549Z" fill="#7D7FE9"/>
<path d="M83.5214 58.2338C83.47 58.1823 83.3671 58.1823 83.3156 58.2338C82.904 58.5939 82.4924 58.9026 82.0294 59.2113C81.5663 59.5715 81.0518 59.8287 80.4858 60.086C79.9713 60.3433 79.4054 60.5491 78.8394 60.7034C78.3249 60.8578 77.3988 60.9607 76.8843 60.9092C75.7009 60.8578 74.569 60.652 73.4885 60.2403C72.3566 59.7773 71.379 59.1599 70.5044 58.2852C69.6297 57.462 68.9608 56.433 68.4978 55.2496C68.0347 54.0662 67.7775 52.6771 67.7775 51.185V40.2259C67.7775 39.9172 67.9833 39.7114 68.292 39.7114H72.6138C72.8711 39.7114 73.0769 39.9172 73.0769 40.1745V51.2364C73.0769 51.9567 73.1798 52.5742 73.3856 53.1401C73.5914 53.7061 73.9001 54.1691 74.2603 54.5293C74.6204 54.8895 75.032 55.1982 75.5466 55.404C75.8038 55.5069 76.0096 55.5583 76.2669 55.6098C77.3473 55.8156 78.4793 55.5583 79.3539 54.8894C79.5597 54.7351 79.7655 54.5293 79.9713 54.3235C80.3315 53.9119 80.6402 53.4488 80.846 52.9343C81.0518 52.4198 81.1547 51.8538 81.1547 51.2879V40.0716C81.1547 39.8658 81.3091 39.7114 81.5149 39.7114H86.0425C86.2483 39.7114 86.4541 39.8658 86.4541 40.123V60.4461C86.4541 60.4976 86.4027 60.6005 86.2998 60.6005H85.2193C85.1679 60.6005 85.1164 60.6005 85.1164 60.5491L83.5214 58.2338Z" fill="#7D7FE9"/>
<path d="M100.963 60.5494C99.677 60.5494 98.4936 60.2922 97.3617 59.8291C96.2298 59.3661 95.2522 58.6972 94.3776 57.8225C93.5029 56.9479 92.834 55.9703 92.371 54.8384C91.9079 53.7065 91.6507 52.5231 91.6507 51.2368V45.6287C91.6507 45.32 91.3934 45.0627 91.0847 45.0627H89.6441C89.3354 45.0627 89.0781 44.8055 89.0781 44.4968V40.3807C89.0781 40.072 89.3354 39.8147 89.6441 39.8147H91.0847C91.3934 39.8147 91.6507 39.5575 91.6507 39.2488V31.9942C91.6507 31.6855 91.9079 31.4282 92.2166 31.4282H96.3327C96.6414 31.4282 96.8987 31.6855 96.8987 31.9942V39.1459C96.8987 39.4546 97.1559 39.7118 97.4646 39.7118H104.359C104.668 39.7118 104.925 39.9691 104.925 40.2778V44.3939C104.925 44.7026 104.668 44.9598 104.359 44.9598H97.4646C97.1559 44.9598 96.8987 45.2171 96.8987 45.5258V51.1339C96.8987 51.6999 97.0016 52.2144 97.2074 52.6775C97.4132 53.1405 97.7219 53.6036 98.082 53.9637C98.4422 54.3239 98.8538 54.6326 99.3683 54.8384C99.8828 55.0442 100.397 55.1471 100.963 55.1471H104.411C104.719 55.1471 104.976 55.4044 104.976 55.7131V59.8291C104.976 60.1378 104.719 60.3951 104.411 60.3951H100.963V60.5494Z" fill="#7D7FE9"/>
<path d="M112.797 60.549H108.527C108.218 60.549 108.012 60.2918 108.012 60.0345V40.2259C108.012 39.9172 108.269 39.7114 108.527 39.7114H112.797C113.106 39.7114 113.312 39.9687 113.312 40.2259V59.9831C113.312 60.2918 113.054 60.549 112.797 60.549Z" fill="#7D7FE9"/>
<path d="M122.212 60.5491H117.891C117.633 60.5491 117.376 60.3433 117.376 60.0346V31.891C117.376 31.6337 117.582 31.3765 117.891 31.3765H122.264C122.521 31.3765 122.778 31.5823 122.778 31.891V60.0346C122.727 60.2919 122.521 60.5491 122.212 60.5491Z" fill="#7D7FE9"/>
<path d="M131.577 60.549H127.358C127.049 60.549 126.792 60.2918 126.792 59.9831V40.2774C126.792 39.9687 127.049 39.7114 127.358 39.7114H131.577C131.885 39.7114 132.143 39.9687 132.143 40.2774V59.9831C132.143 60.2918 131.885 60.549 131.577 60.549Z" fill="#7D7FE9"/>
<path d="M146.652 60.5491C145.365 60.5491 144.182 60.2919 143.05 59.8288C141.918 59.3658 140.941 58.6969 140.066 57.8222C139.191 56.9476 138.522 55.97 138.059 54.8381C137.596 53.7062 137.339 52.5228 137.339 51.2365V45.6284C137.339 45.2682 137.082 45.011 136.722 45.011H135.384C135.024 45.011 134.766 44.7537 134.766 44.3936V40.3289C134.766 39.9688 135.024 39.7115 135.384 39.7115H136.722C137.082 39.7115 137.339 39.4543 137.339 39.0941V31.9939C137.339 31.6337 137.596 31.3765 137.956 31.3765H142.021C142.381 31.3765 142.638 31.6337 142.638 31.9939V39.0941C142.638 39.4543 142.896 39.7115 143.256 39.7115H150.099C150.459 39.7115 150.716 39.9688 150.716 40.3289V44.3936C150.716 44.7537 150.459 45.011 150.099 45.011H143.256C142.896 45.011 142.638 45.2682 142.638 45.6284V51.1851C142.638 51.751 142.741 52.2655 142.947 52.7286C143.153 53.1917 143.462 53.6547 143.822 54.0149C144.182 54.375 144.594 54.6837 145.108 54.8895C145.623 55.0953 146.137 55.1982 146.703 55.1982H150.099C150.459 55.1982 150.716 55.4555 150.716 55.8157V59.8803C150.716 60.2404 150.459 60.4977 150.099 60.4977H146.652V60.5491Z" fill="#7D7FE9"/>
<path d="M158.434 60.5492H154.215C153.906 60.5492 153.649 60.292 153.649 59.9833V40.2261C153.649 39.9174 153.906 39.6602 154.215 39.6602H158.434C158.743 39.6602 159 39.9174 159 40.2261V59.9833C159 60.292 158.743 60.5492 158.434 60.5492Z" fill="#7D7FE9"/>
<path d="M31.1959 59.7261C31.4017 57.2565 32.8938 44.7025 31.7104 43.6734C26.6682 39.3516 20.3398 38.4769 15.7606 44.2394C14.8345 45.4228 16.2751 56.8963 16.6353 59.4174C16.7382 59.9834 16.2751 60.5493 15.6577 60.5493H8.71186C8.2488 60.5493 7.88865 60.2406 7.78574 59.829C7.06543 57.0507 6.44802 44.2909 5.93351 41.6669C5.77916 40.8951 -1.21817 41.6154 6.96253 34.2579L21.3688 22.167C21.3688 22.167 23.221 20.006 26.411 22.167L39.531 36.0073" stroke="#7D7FE9" stroke-width="5" stroke-miterlimit="10" stroke-linecap="round"/>
<path d="M11.9533 22.3214L3.00085 15.6328" stroke="#7D7FE9" stroke-width="5" stroke-miterlimit="10" stroke-linecap="round"/>
<path d="M24.1471 13.9861L24.25 2.82129" stroke="#7D7FE9" stroke-width="5" stroke-miterlimit="10" stroke-linecap="round"/>
<path d="M36.9584 22.3726L45.8594 15.5811" stroke="#7D7FE9" stroke-width="5" stroke-miterlimit="10" stroke-linecap="round"/>
</svg>
